<svg width="46" height="46" viewBox="0 0 46 46" fill="none" xmlns="http://www.w3.org/2000/svg">
<path d="M46 23C46 10.2975 35.7025 0 23 0C10.2975 0 0 10.2975 0 23C0 35.7025 10.2975 46 23 46C35.7025 46 46 35.7025 46 23Z" fill="#FF9C00"/>
<path d="M23.0429 14.5854L21.8901 16.9415C21.0663 18.6248 19.9623 20.1556 18.6253 21.4686L18.4738 21.6117C17.6151 22.4453 17.1244 23.5872 17.1106 24.784V24.9354C17.0879 27.279 18.4844 29.4037 20.6448 30.3124L20.8636 30.405C22.2805 31.0068 23.8812 31.0068 25.2981 30.405H25.3486C27.525 29.4593 28.9215 27.2999 28.8911 24.927V21.2751C28.1658 22.9315 26.8485 24.2578 25.1971 24.9944C25.1971 24.9944 25.1971 24.9944 25.1466 24.9944C25.0961 24.9944 24.5071 25.2384 24.2547 24.9944C24.0291 24.7662 24.0075 24.4063 24.2042 24.1529L24.2631 24.1108H24.3051C26.2369 22.6425 26.6873 19.9218 25.3317 17.9092C24.2378 16.2431 23.0429 14.5854 23.0429 14.5854Z" fill="black"/>
</svg>
